<svg width="111" height="30" viewBox="0 0 111 30" fill="none" xmlns="http://www.w3.org/2000/svg">
<path d="M90.8002 0H82.9792L75.1185 20.5841L67.1654 0H59.2123V29.5929H65.9236V11.2479L72.5556 29.5929H77.6551L84.0757 11.2479V29.5929H90.8002V0Z" fill="#21356A"/>
<path d="M102.532 23.6744V0H95.6487V29.5929H111V23.6744H102.532Z" fill="#21356A"/>
<path d="M0 0.000274658V29.5932H10.9256C13.3961 29.5932 15.5891 29.1742 17.518 28.3493C19.4468 27.5243 21.0718 26.4113 22.3929 25.0364C23.714 23.6615 24.7048 22.0771 25.3918 20.2963C26.0656 18.5155 26.4091 16.6954 26.4091 14.7967C26.4091 12.9112 26.0656 11.078 25.3654 9.29717C24.6652 7.51636 23.6611 5.94505 22.34 4.55706C21.0189 3.18217 19.4072 2.06916 17.4915 1.24423C15.5891 0.41929 13.3961 0.000274658 10.9256 0.000274658H0ZM10.5821 5.91886C11.9693 5.91886 13.2111 6.16765 14.3077 6.65214C15.4042 7.14972 16.3158 7.80443 17.0688 8.64246C17.8218 9.48049 18.3899 10.4233 18.7862 11.497C19.1826 12.5707 19.3807 13.6706 19.3807 14.7967C19.3807 15.949 19.1826 17.062 18.7862 18.1096C18.3899 19.1702 17.8086 20.113 17.0688 20.9379C16.3158 21.776 15.391 22.4307 14.3077 22.9283C13.2111 23.4258 11.9693 23.6615 10.5821 23.6615H6.883V5.91886H10.5821Z" fill="#21356A"/>
<path fill-rule="evenodd" clip-rule="evenodd" d="M37.7046 0.274994H44.3498L53.6504 29.593H47.0052L37.7046 0.274994Z" fill="#517CD9"/>
<path fill-rule="evenodd" clip-rule="evenodd" d="M37.7046 0.274994H44.3498L53.6504 29.593H47.0052L37.7046 0.274994Z" fill="url(#paint0_linear_1_3957)"/>
<path fill-rule="evenodd" clip-rule="evenodd" d="M38.3651 19.1176L35.0491 29.5929H28.4039L31.7199 19.1176H38.3651Z" fill="#21356A"/>
<path fill-rule="evenodd" clip-rule="evenodd" d="M44.3498 0.274994L40.9413 11.0123H34.2961L37.7046 0.274994H44.3498Z" fill="#81A9FF"/>
<defs>
<linearGradient id="paint0_linear_1_3957" x1="57.0587" y1="26.2147" x2="34.4963" y2="3.45087" gradientUnits="userSpaceOnUse">
<stop stop-color="#517CD9"/>
<stop offset="1" stop-color="#2C58B9"/>
</linearGradient>
</defs>
</svg>
