<svg width="24" height="21" viewBox="0 0 24 21" fill="none" xmlns="http://www.w3.org/2000/svg">
<path d="M22.5211 0H1.47886C0.663375 0 0 0.663375 0 1.47881V15.7575C0 16.573 0.663375 17.2364 1.47886 17.2364H8.5957L8.30784 19.5393H7.11516C6.92095 19.5393 6.76359 19.6967 6.76359 19.8908C6.76359 20.085 6.92095 20.2424 7.11516 20.2424H16.8848C17.079 20.2424 17.2364 20.085 17.2364 19.8908C17.2364 19.6967 17.079 19.5393 16.8848 19.5393H15.6922L15.4043 17.2364H22.5211C23.3366 17.2364 24 16.573 24 15.7575V1.47881C24 0.663375 23.3366 0 22.5211 0ZM9.01645 19.5393L9.30436 17.2364H10.5982L10.7252 17.744C10.8717 18.3301 11.396 18.7394 12 18.7394C12.6041 18.7394 13.1284 18.3301 13.2749 17.744L13.4018 17.2364H14.6957L14.9835 19.5393H9.01645ZM11.323 17.2364H12.677L12.5927 17.5735C12.5246 17.846 12.2809 18.0362 12 18.0362C11.719 18.0362 11.4754 17.8459 11.4072 17.5735L11.323 17.2364ZM23.2969 15.7575C23.2969 16.1853 22.9489 16.5332 22.5211 16.5332H1.47886C1.05113 16.5332 0.703125 16.1853 0.703125 15.7575V1.47881C0.703125 1.05108 1.05113 0.703125 1.47886 0.703125H22.5211C22.9489 0.703125 23.2969 1.05108 23.2969 1.47881V15.7575Z" fill="#ED0F66"/>
<path d="M19.8908 1.50299H1.85449C1.66029 1.50299 1.50293 1.66035 1.50293 1.85455V15.3817C1.50293 15.5759 1.66029 15.7333 1.85449 15.7333H2.60604C2.80024 15.7333 2.9576 15.5759 2.9576 15.3817C2.95765 15.1876 2.80024 15.0302 2.60609 15.0302H2.2061V2.20612H19.8908C20.085 2.20612 20.2423 2.04871 20.2423 1.85455C20.2423 1.66035 20.085 1.50299 19.8908 1.50299Z" fill="#ED0F66"/>
<path d="M22.1455 1.50299H21.3939C21.1997 1.50299 21.0424 1.66035 21.0424 1.85455C21.0424 2.04871 21.1997 2.20612 21.3939 2.20612H21.7939V15.0302H4.10919C3.91499 15.0302 3.75763 15.1876 3.75763 15.3817C3.75763 15.5759 3.91499 15.7333 4.10919 15.7333H22.1454C22.3396 15.7333 22.497 15.5759 22.497 15.3817V1.85455C22.497 1.66035 22.3396 1.50299 22.1455 1.50299Z" fill="#ED0F66"/>
<path d="M16.7859 5.3954C16.7227 5.31463 16.6274 5.26551 16.525 5.26087L8.25843 4.88507C8.25196 4.88479 8.24563 4.88465 8.23912 4.88474C8.19018 4.7241 8.08677 4.58479 7.9468 4.49142L6.93444 3.81651C6.77291 3.70884 6.55462 3.75248 6.44694 3.91406C6.33927 4.07563 6.38291 4.29388 6.54444 4.40156L7.55676 5.07637C7.56154 5.07956 7.56505 5.08438 7.56665 5.08992L8.85613 9.60309C8.89635 9.74381 8.96254 9.87027 9.04752 9.97949L8.57572 10.9231C8.46215 11.1502 8.47405 11.4147 8.60755 11.6307C8.65597 11.709 8.71738 11.7757 8.78793 11.8292C8.69558 11.9904 8.64247 12.1769 8.64247 12.3756C8.64247 12.9839 9.13733 13.4787 9.74554 13.4787C10.3537 13.4787 10.8486 12.9838 10.8486 12.3756C10.8486 12.2346 10.8217 12.0997 10.7732 11.9757H13.9784C13.9299 12.0997 13.903 12.2346 13.903 12.3756C13.903 12.9839 14.3979 13.4787 15.0061 13.4787C15.6143 13.4787 16.1091 12.9838 16.1091 12.3756C16.1091 12.1992 16.0673 12.0324 15.9933 11.8844C16.0643 11.8201 16.1091 11.7275 16.1091 11.6241C16.1091 11.4299 15.9518 11.2725 15.7576 11.2725H9.22612C9.2211 11.2725 9.21262 11.2725 9.20554 11.2611C9.19846 11.2496 9.20226 11.2421 9.20451 11.2375L9.63913 10.3683C9.72758 10.3911 9.81974 10.4033 9.91405 10.4033C9.95751 10.4033 10.0014 10.4008 10.0455 10.3956L14.9855 9.81445C15.6235 9.73935 16.1368 9.26573 16.2628 8.63573L16.8538 5.68101C16.8739 5.58046 16.8491 5.47617 16.7859 5.3954ZM15.006 11.9758C15.2265 11.9758 15.4059 12.1552 15.4059 12.3757C15.4059 12.5962 15.2265 12.7756 15.006 12.7756C14.7854 12.7756 14.6061 12.5962 14.6061 12.3757C14.6061 12.1551 14.7854 11.9758 15.006 11.9758ZM9.74544 11.9758C9.96599 11.9758 10.1454 12.1551 10.1454 12.3757C10.1454 12.5962 9.96599 12.7756 9.74544 12.7756C9.5249 12.7756 9.34551 12.5962 9.34551 12.3757C9.34551 12.1551 9.5249 11.9758 9.74544 11.9758ZM8.88332 7.13929L8.44274 5.59734L9.84829 5.66123L10.092 7.13929H8.88332ZM9.96341 9.69731C9.76738 9.72037 9.58621 9.59948 9.53212 9.40996L9.08423 7.84241H10.2079L10.5033 9.63379L9.96341 9.69731ZM12.0242 9.45487L11.2024 9.55157L10.9206 7.84246H12.0242V9.45487ZM12.0242 7.13929H10.8046L10.5663 5.6939L12.0242 5.76018V7.13929ZM13.8046 9.24538L12.7273 9.37213V7.84241H13.9316L13.8046 9.24538ZM13.9952 7.13929H12.7273V5.7921L14.1115 5.85501L13.9952 7.13929ZM15.5733 8.49791C15.5072 8.82829 15.238 9.07677 14.9033 9.11615L14.5182 9.16148L14.6376 7.84246H15.7044L15.5733 8.49791ZM15.8451 7.13929H14.7013L14.8146 5.88698L16.084 5.94468L15.8451 7.13929Z" fill="#36C1BD"/>
</svg>