<svg width="43" height="43" viewBox="0 0 43 43" fill="none" xmlns="http://www.w3.org/2000/svg">
<g clip-path="url(#clip0_1_4117)">
<path d="M39.826 20.1053C38.5425 17.7593 37.2664 16.2432 36.8068 15.73V12.2673L42.7699 7.37093C42.9118 7.25427 42.9959 7.08151 42.9999 6.89774C43.0039 6.71398 42.9274 6.53768 42.7906 6.41506L38.2787 2.37106C38.0197 2.13891 37.6214 2.16075 37.3892 2.41968C37.157 2.6787 37.1788 3.07697 37.4379 3.3092L41.403 6.86322L36.807 10.637V8.06097C36.807 7.71309 36.5251 7.43106 36.1771 7.43106C35.8292 7.43106 35.5472 7.71309 35.5472 8.06097L35.5469 15.4432C31.0492 16.1712 26.4973 16.1711 21.9997 15.4431V8.06097C21.9997 7.71309 21.7177 7.43106 21.3698 7.43106C21.0218 7.43106 20.7398 7.71309 20.7398 8.06097V10.6373L16.1435 6.86322L21.047 2.46756C21.7684 1.82068 22.6999 1.55184 23.5964 1.65834C23.781 2.45135 24.205 4.11472 24.8561 5.7718C25.9259 8.49477 27.1738 10.1226 28.565 10.61C28.6324 10.6336 28.7028 10.6454 28.7732 10.6454C28.8436 10.6454 28.914 10.6336 28.9814 10.61C30.3726 10.1226 31.6205 8.49477 32.6906 5.77189C33.3406 4.11792 33.7641 2.45891 33.9494 1.66396C34.5044 1.59761 35.0775 1.67186 35.6104 1.89997C35.9304 2.03695 36.3005 1.88855 36.4374 1.5688C36.5744 1.24898 36.4261 0.878762 36.1063 0.741862C34.4881 0.0490474 32.6016 0.367277 31.2997 1.55226L30.7184 2.08138C29.6094 3.09125 27.9374 3.09125 26.8288 2.08138L26.2476 1.55226C24.5312 -0.0102479 21.9338 -0.0199066 20.2059 1.52967L14.7559 6.41523C14.619 6.53785 14.5426 6.71423 14.5466 6.89791C14.5505 7.08167 14.6346 7.25444 14.7765 7.3711L20.7397 12.2675V15.7296C20.3267 16.1892 19.2654 17.4442 18.1343 19.3687C17.1763 18.8583 16.1632 18.3543 15.1369 17.844C14.2401 17.3981 13.3368 16.9489 12.4697 16.4927C13.3172 15.4316 13.9709 14.2304 14.2573 12.8221C14.6951 10.6701 14.0548 8.74782 12.5006 7.54806C11.0272 6.4107 8.99811 6.15714 7.45131 6.91714C6.62218 7.32448 5.23126 8.38172 5.23126 10.8849C5.23126 12.4694 6.23752 13.9673 8.30773 15.4643C8.95528 15.9325 9.68328 16.3861 10.4582 16.8286C9.4975 17.7736 8.395 18.6146 7.35347 19.409C5.11108 21.1193 2.98359 22.7433 2.92857 24.9313C1.55672 25.2602 0.498223 26.4042 0.313954 27.8451C-0.104977 31.1257 -0.104977 34.4524 0.313954 37.7332C0.525603 39.3873 1.88998 40.6515 3.55831 40.7389C6.90338 40.9133 10.272 41.0005 13.6406 41.0005C17.0092 41.0005 20.378 40.9133 23.7232 40.7389C25.3919 40.6514 26.7559 39.3871 26.9665 37.7332C27.092 36.7523 27.1791 35.7673 27.2296 34.7807C27.7421 34.7961 28.2588 34.8043 28.7732 34.8043C36.9964 34.8043 42.3615 32.8803 42.586 32.7984C42.8345 32.7076 42.9999 32.4712 42.9999 32.2067C43 26.9993 41.2741 22.7517 39.826 20.1053ZM25.9807 3.01247C27.5724 4.46285 29.974 4.46285 31.5668 3.01264L32.148 2.4836C32.2661 2.37609 32.3909 2.27858 32.5212 2.19107C32.3024 3.02557 31.9668 4.1699 31.5184 5.31088C30.4684 7.98278 29.477 8.984 28.7734 9.33263C28.07 8.984 27.0786 7.98278 26.0288 5.31088C25.5805 4.16974 25.2448 3.02465 25.026 2.18981C25.1557 2.27741 25.2806 2.37517 25.3997 2.48351L25.9807 3.01247ZM6.49142 10.8846C6.49142 9.51572 7.0155 8.53466 8.00714 8.04745C8.42187 7.84369 8.89581 7.74484 9.38362 7.74484C10.1988 7.74484 11.0525 8.02108 11.7311 8.54491C12.4125 9.07084 13.4863 10.2933 13.0231 12.5706C12.7692 13.819 12.1481 14.905 11.3374 15.8787C8.61496 14.3531 6.49142 12.7334 6.49142 10.8846ZM3.62399 26.0978C4.74682 26.0395 5.87008 25.9908 6.96259 25.953C7.3103 25.9409 7.58233 25.6494 7.57024 25.3017C7.55814 24.9539 7.26881 24.683 6.91891 24.694C6.02797 24.7248 5.11662 24.7632 4.20183 24.8077C4.36409 23.2746 6.11859 21.9351 8.11775 20.4104C9.29215 19.5145 10.5389 18.5636 11.6105 17.4625C12.5757 17.9769 13.5836 18.4781 14.5762 18.9717C15.5698 19.4658 16.5714 19.964 17.5214 20.4708C16.8974 21.6565 16.2837 23.0362 15.7758 24.5907C13.6567 24.5671 11.5413 24.5762 9.44157 24.6223C9.09369 24.63 8.81796 24.9181 8.8256 25.2659C8.83324 25.6138 9.11989 25.8924 9.46912 25.8818C14.1649 25.7788 18.9386 25.8515 23.6578 26.0978C24.7174 26.1528 25.5835 26.9545 25.7172 28.0045C25.8056 28.6958 25.8737 29.3893 25.9236 30.084C25.8727 30.7811 25.8035 31.4731 25.7172 32.1427C25.5836 33.1919 24.7172 33.9932 23.6568 34.0482C22.2305 34.1227 20.7977 34.1807 19.3851 34.2231C19.4154 33.3336 19.3958 32.4404 19.3245 31.5559C19.2281 30.3596 18.2577 29.4083 17.0672 29.3432C15.0289 29.2317 12.962 29.2316 10.9242 29.3432C9.73368 29.4083 8.76328 30.3596 8.66686 31.5559C8.59505 32.4471 8.57565 33.3472 8.6069 34.2435C6.94806 34.1994 5.27569 34.1347 3.62399 34.0482C2.5639 33.9933 1.69748 33.1919 1.56394 32.1424C1.47945 31.4808 1.41016 30.791 1.35742 30.0915C1.40731 29.3944 1.47534 28.6983 1.56394 28.0045C1.69815 26.9547 2.56457 26.1528 3.62399 26.0978ZM18.63 21.0819C20.6706 22.2497 22.3195 23.4713 22.8735 24.7994C20.9531 24.7077 19.0255 24.6441 17.0985 24.6096C17.5526 23.2946 18.0869 22.1123 18.63 21.0819ZM18.0687 35.1982C18.0227 35.7694 17.5625 36.2234 16.9984 36.2543C15.0059 36.3633 12.9855 36.3633 10.9929 36.2543C10.4288 36.2234 9.96859 35.7694 9.92256 35.1982C9.82791 34.0234 9.82791 32.832 9.92256 31.6571C9.96859 31.0859 10.4288 30.632 10.993 30.6011C11.9892 30.5466 12.9924 30.5193 13.9956 30.5193C14.9989 30.5193 16.0021 30.5466 16.9984 30.6011C17.5625 30.632 18.0227 31.0859 18.0687 31.6571C18.1634 32.832 18.1634 34.0234 18.0687 35.1982ZM23.6577 39.4805C17.011 39.8271 10.2709 39.8271 3.62441 39.4805C2.56482 39.4249 1.69815 38.6227 1.56394 37.5732C1.42503 36.4852 1.33482 35.3919 1.29115 34.297C1.87789 34.8853 2.67552 35.2606 3.55848 35.3063C5.26016 35.3955 6.98409 35.4617 8.69282 35.5061C8.87751 36.6037 9.80313 37.451 10.9241 37.5123C11.9432 37.568 12.9695 37.5959 13.9956 37.5959C15.0218 37.5959 16.0481 37.568 17.0671 37.5123C18.1949 37.4505 19.1248 36.5933 19.3015 35.4861C20.7624 35.4431 22.246 35.3835 23.7222 35.3063C24.6056 35.2606 25.4036 34.885 25.9904 34.2966C25.9467 35.3917 25.8563 36.4852 25.7171 37.5734C25.5834 38.6229 24.7172 39.4249 23.6577 39.4805ZM39.6728 32.3168C38.4276 32.5927 40.0151 32.2527 39.6728 32.3168C39.3309 32.381 39.6728 32.3168 38.4276 32.5927C37.9426 32.692 37.3927 32.7953 36.784 32.8957C35.5295 33.0852 37.1258 32.8318 36.784 32.8957C36.4421 32.9599 36.784 32.8957 35.5295 33.0852C33.6513 33.3429 31.3576 33.5443 28.7733 33.5443C28.2736 33.5443 27.7716 33.5365 27.2737 33.5216C27.3094 31.6258 27.2075 29.7279 26.9667 27.8453C26.7778 26.362 25.662 25.1935 24.2312 24.9047C23.7688 22.9799 21.7925 21.4337 19.2453 19.98C20.252 18.276 21.194 17.1265 21.6053 16.6549C23.9845 17.0508 26.379 17.2494 28.7736 17.2494C31.168 17.2494 33.5624 17.0509 35.9415 16.655C36.4142 17.1956 37.5842 18.6247 38.7413 20.748C40.0672 23.1808 41.6398 27.0368 41.7354 31.7537C41.3257 31.883 40.6233 32.0899 39.6728 32.3168Z" fill="#ED0F66"/>
<path d="M16.5233 31.5565C15.682 31.5171 14.8316 31.4972 13.9956 31.4972C13.1596 31.4972 12.3092 31.5171 11.4678 31.5565C11.1465 31.5715 10.8881 31.8263 10.8685 32.1474C10.8168 32.9969 10.8168 33.8584 10.8685 34.708C10.888 35.0291 11.1465 35.2839 11.4678 35.2989C12.3085 35.3382 13.159 35.3582 13.9956 35.3582C14.8322 35.3582 15.6826 35.3383 16.5233 35.2989C16.8447 35.2839 17.103 35.0291 17.1227 34.708C17.1743 33.8584 17.1743 32.997 17.1227 32.1474C17.1031 31.8263 16.8448 31.5715 16.5233 31.5565ZM15.8915 34.0642C14.6254 34.1096 13.3657 34.1096 12.0998 34.0642C12.0863 33.6405 12.0863 33.215 12.0998 32.7913C13.3666 32.7458 14.6247 32.7458 15.8915 32.7913C15.905 33.215 15.905 33.6405 15.8915 34.0642Z" fill="#25BCB7"/>
<path d="M38.7215 31.6195C38.6161 30.7838 38.4899 29.9426 38.3467 29.1191C38.2033 28.2954 38.038 27.461 37.8549 26.6388C37.785 26.3248 37.4898 26.1139 37.17 26.1496C36.3243 26.2443 35.4755 26.392 34.6474 26.5885C34.3343 26.6629 34.1276 26.9611 34.1679 27.2803C34.2733 28.1153 34.3994 28.9567 34.5428 29.7809C34.6862 30.6051 34.8516 31.4395 35.0345 32.261C35.1044 32.575 35.3996 32.7859 35.7194 32.7502C36.5652 32.6555 37.414 32.5078 38.2421 32.3113C38.555 32.237 38.7618 31.9388 38.7215 31.6195ZM36.1426 31.4269C35.8808 30.1873 35.6649 28.9463 35.4927 27.6913C35.9078 27.6054 36.327 27.5324 36.7467 27.4731C37.0087 28.7133 37.2244 29.9529 37.3967 31.2087C36.9816 31.2947 36.5624 31.3676 36.1426 31.4269Z" fill="#25BCB7"/>
</g>
<defs>
<clipPath id="clip0_1_4117">
<rect width="43" height="43" fill="white"/>
</clipPath>
</defs>
</svg>
