<svg xmlns="http://www.w3.org/2000/svg" xmlns:xlink="http://www.w3.org/1999/xlink" width="909.316" height="789.53" viewBox="0 0 909.316 789.53">
  <defs>
    <clipPath id="clip-path">
      <path id="Path_1" data-name="Path 1" d="M537.24,256.19H701.83V200.86H537.24Z"/>
    </clipPath>
    <clipPath id="clip-path-2">
      <path id="Path_2" data-name="Path 2" d="M135.34,816.44l-3.93,19.4s-24.73,5.38-26.22,11.05,51.94,1.79,51.94,1.79l5.67-32.24Z"/>
    </clipPath>
    <clipPath id="clip-path-3">
      <path id="Path_3" data-name="Path 3" d="M242.21,816.44l1.13,32.24s53.43,3.88,51.94-1.79-26.23-11.05-26.23-11.05l.62-19.4Z"/>
    </clipPath>
    <clipPath id="clip-path-4">
      <path id="Path_4" data-name="Path 4" d="M131.41,820.11c26.48,2.91,32.05,1.13,32.05,1.13l49.16-176.43h21.59c1.59,1.7,6.46,176.43,6.46,176.43s22.21,3.29,30.96-1.25c0,0,9.99-134.48,12.67-207.4L169.22,589.44S143.74,733.75,131.41,820.11Z"/>
    </clipPath>
    <clipPath id="clip-path-5">
      <path id="Path_5" data-name="Path 5" d="M203.94,449.78c-7.75,7.49-24.3,58.41-34.72,139.66,41.6,43.88,115.08,23.15,115.08,23.15s3.74-148.03-.2-155.48c-7.55-14.23-44.47-16.42-44.47-16.42S211.69,442.29,203.94,449.78Z"/>
    </clipPath>
    <clipPath id="clip-path-6">
      <path id="Path_6" data-name="Path 6" d="M62.97,561.28a14.776,14.776,0,0,0-10.12,18.27l5.23,18.23A14.753,14.753,0,0,0,76.34,607.9l261.98-75.1-13.37-46.62Z"/>
    </clipPath>
    <clipPath id="clip-path-7">
      <path id="Path_7" data-name="Path 7" d="M338.32,532.8l31.7-34.31-45.07-12.31Z"/>
    </clipPath>
    <clipPath id="clip-path-8">
      <path id="Path_8" data-name="Path 8" d="M224.36,448.25l21.62,18.41L264,448.25v-27.1l-45.13-14.94Z"/>
    </clipPath>
  </defs>
  <g id="form-gr" transform="translate(-52.274 -86)">
    <path id="Path_2-2" data-name="Path 2" d="M631.21,227.27c-29.98,5.66-60.52-6.12-87.12-21.05-37.03-20.79-70.08-47.94-106.04-70.53S361.69,94.76,319.22,94.68s-87.01,21.76-103.75,60.79c-17.75,41.38-1.28,89.45-8.96,133.82-12.46,71.94-85.38,122-97.54,194-6.96,41.23,7.7,83.74,31.05,118.43,49.69,73.81,142.51,117.69,230.47,104.29,55.99-8.52,107.02-38.24,149.51-75.68S597.42,547.8,632.06,503" fill="#abd5e6" opacity="0.302"/>
    <path id="Path_3-2" data-name="Path 3" d="M656.81,746.09a380.589,380.589,0,0,1-29.01-39.36c-8.45-13.16-16.21-27.14-19.29-42.48-4.13-20.59.48-41.89,6.19-62.11,6.55-23.2,14.73-46.28,28.35-66.17s33.25-36.5,56.61-42.46c19.01-4.85,39.21-2.47,58.43-6.4,37.21-7.61,65.96-37.89,84.67-70.95,9.85-17.41,18.97-37.33,37.09-45.83,21.24-9.97,48.21,1.06,61.22,20.58s14.08,45.03,8.74,67.87-16.46,43.85-26.53,65.04-19.35,43.39-20.6,66.82c-2.06,38.65,17.89,76.6,12.41,114.92-3.07,21.53-14.09,41.29-27.93,58.07-11.49,13.93-25.25,26.3-41.54,34.1-24.39,11.67-53.14,12.27-79.24,5.23s-49.8-21.27-71-38.06" fill="#ffce68" opacity="0.302"/>
    <path id="Path_4-2" data-name="Path 4" d="M941.72,850.56c0,13.8-197.93,24.97-442.08,24.97S57.57,864.36,57.57,850.56,255.5,825.6,499.64,825.6,941.72,836.77,941.72,850.56Z" fill="#1d262d" opacity="0.102"/>
    <path id="Path_5-2" data-name="Path 5" d="M858.7,846.37H380.37V208.22H858.7Z" fill="#215b74"/>
    <path id="Path_6-2" data-name="Path 6" d="M829.43,822.88H409.64V251.23H829.43Z" fill="#1d262d" opacity="0.2"/>
    <path id="Path_7-2" data-name="Path 7" d="M829.43,813.12H409.64V241.46H829.43Z" fill="#fff"/>
    <path id="Path_8-2" data-name="Path 8" d="M378.26,247.93V206.11h41.82Zm482.54,0V206.11H818.98ZM378.26,808.28V850.1h41.82Zm482.54,0V850.1H818.98Z" fill="#dc894e"/>
    <path id="Path_9" data-name="Path 9" d="M619.53,223.94c-16.5,0-29.88,7.63-29.88-8.88v-2.53a29.885,29.885,0,0,1,59.77,0v2.53C649.42,231.57,636.04,223.94,619.53,223.94Z" fill="#ffce68"/>
    <path id="Path_10" data-name="Path 10" d="M697.58,261.98H541.49V247.94H697.58Z" fill="#1d262d" opacity="0.2"/>
    <path id="Path_11" data-name="Path 11" d="M701.83,256.19H537.24V200.86H701.83Z" fill="#ffce68"/>
    <g id="Mask" clip-path="url(#clip-path)">
      <path id="Path_13" data-name="Path 13" d="M722.64,262.98H520.79V231.26H722.64Z" fill="#cc2a3a" opacity="0.2"/>
    </g>
    <path id="Path_15" data-name="Path 15" d="M509.07,404.81H451.64V347.38h57.43Z" fill="#abd5e6"/>
    <path id="Path_16" data-name="Path 16" d="M515.15,410.89H445.56V341.3h69.59Zm-67.49-2.1h65.39V343.4H447.66Zm61.41,84.01H451.64V435.37h57.43Z" fill="#abd5e6" fill-rule="evenodd"/>
    <path id="Path_17" data-name="Path 17" d="M515.15,498.88H445.56V429.29h69.59Zm-67.49-2.1h65.39V431.39H447.66Zm61.41,84.02H451.64V523.36h57.43Z" fill="#abd5e6" fill-rule="evenodd"/>
    <path id="Path_18" data-name="Path 18" d="M515.15,586.88H445.56v-69.6h69.59Zm-67.49-2.1h65.39V519.39H447.66Z" fill="#abd5e6" fill-rule="evenodd"/>
    <path id="Path_19" data-name="Path 19" d="M475.23,396.21,442.07,363.4a5.844,5.844,0,0,1,8.22-8.31l24.48,24.22,38.83-42.9a5.844,5.844,0,1,1,8.66,7.85Zm0,88.65-33.16-32.8a5.844,5.844,0,0,1,8.22-8.31l24.48,24.21,38.83-42.89a5.841,5.841,0,0,1,8.66,7.84Zm0,86.56-33.16-32.81a5.844,5.844,0,0,1,8.22-8.31l24.48,24.22,38.83-42.9a5.841,5.841,0,0,1,8.66,7.84Z" fill="#23809b"/>
    <path id="Path_20" data-name="Path 20" d="M509.07,668.79H451.64V611.36h57.43Z" fill="#abd5e6"/>
    <path id="Path_21" data-name="Path 21" d="M515.15,674.87H445.56V605.28h69.59Zm-67.49-2.1h65.39V607.38H447.66Zm61.41,84.01H451.64V699.35h57.43Z" fill="#abd5e6" fill-rule="evenodd"/>
    <path id="Path_22" data-name="Path 22" d="M515.15,762.87H445.56v-69.6h69.59Zm-67.49-2.11h65.39V695.37H447.66Z" fill="#abd5e6" fill-rule="evenodd"/>
    <path id="Path_23" data-name="Path 23" d="M790.08,362.91H535.93v-6.93H790.08Zm0,16.65H535.93v-6.93H790.08ZM614.5,396.21H535.93v-6.93H614.5ZM790.08,449.8H535.93v-6.93H790.08Zm0,16.65H535.93v-6.93H790.08ZM702,483.09H535.93v-6.93H702Zm88.08,53.6H535.93v-6.93H790.08Zm-36.77,16.64H535.93V546.4H753.31ZM614.5,569.98H535.93v-6.93H614.5Zm175.58,53.59H535.93v-6.93H790.08ZM664.02,640.22H535.93v-6.93H664.02Zm126.06,70.24H535.93v-6.93H790.08Zm0,16.65H535.93v-6.94H790.08Zm-68.84,16.64H535.93v-6.93H721.24ZM740.7,302.42H499.07V285.29H740.7Z" fill="#23809b"/>
    <path id="Path_24" data-name="Path 24" d="M626.41,195.97a6.875,6.875,0,1,1-6.88-6.87A6.88,6.88,0,0,1,626.41,195.97Z" fill="#fff"/>
    <path id="Path_25" data-name="Path 25" d="M135.34,816.44l-3.92,19.4s-24.74,5.38-26.23,11.05,51.94,1.79,51.94,1.79l5.67-32.24" fill="#47648f"/>
    <g id="Mask-2" data-name="Mask" clip-path="url(#clip-path-2)">
      <path id="Path_27" data-name="Path 27" d="M127.06,807.79a5.912,5.912,0,0,0-2.09,5.36,10.476,10.476,0,0,0,2.5,5.39c3.15,3.84,7.8,6.16,12.54,7.65a50.2,50.2,0,0,0,13.91,2.31c5.87.13,12.06-.9,16.62-4.6s6.85-10.59,3.94-15.69c-1.59-2.79-4.41-4.64-7.26-6.12a52.343,52.343,0,0,0-16.45-5.27" fill="#1d262d" opacity="0.102"/>
    </g>
    <path id="Path_29" data-name="Path 29" d="M269.67,816.44l-.62,19.4s24.74,5.38,26.23,11.05-51.94,1.79-51.94,1.79l-1.13-32.24" fill="#47648f"/>
    <g id="Mask-3" data-name="Mask" clip-path="url(#clip-path-3)">
      <path id="Path_31" data-name="Path 31" d="M243.3,806.14a25.542,25.542,0,0,0-9.15,9.03,13.917,13.917,0,0,0-2.19,6.53,7.381,7.381,0,0,0,2.67,6.14,8.774,8.774,0,0,0,3.99,1.47c2.8.42,9.1,1.19,11.92.91,7.99-.78,12.98-2.87,19.31-7.81a22.288,22.288,0,0,0,6.56-25.58" fill="#1d262d" opacity="0.102"/>
    </g>
    <path id="Path_33" data-name="Path 33" d="M379.5,366.9s-18.36-5.72-17.98-11.05,12.77-.98,12.77-.98-6.89-25.35-3.93-27.42,7.43,13.8,7.43,13.8.86-15.47,4.85-15.18,3.23,12.69,3.23,12.69,4.47-9.85,8.37-8.23-2.52,12.37-2.52,12.37,9.9-5.61,11.46-2.92-6.23,11.64-6.23,11.64,9.62,9.07-1.97,26.46c-3.18-1.34-12.19-5.5-16.9-4.53Z" fill="#ffd1bb"/>
    <path id="Path_34" data-name="Path 34" d="M260.36,443.88s83.1,7.35,114.87-73.23c22.69-3.42,22.69,12.6,22.69,12.6s-31.42,118-128.91,102.55" fill="#ffd555"/>
    <path id="Path_35" data-name="Path 35" d="M169.22,589.44s-25.48,144.31-37.8,230.67c26.47,2.91,32.04,1.13,32.04,1.13l49.16-176.43h21.59c1.59,1.7,6.46,176.43,6.46,176.43s22.21,3.29,30.96-1.25c0,0,9.99-134.48,12.67-207.4Z" fill="#798ec9"/>
    <g id="Mask-4" data-name="Mask" clip-path="url(#clip-path-4)">
      <path id="Path_37" data-name="Path 37" d="M118.16,590.91a185.446,185.446,0,0,0,247.55-19.56c-77.47-5.64-157.44-10.15-230.83,15.3" fill="#1d262d" opacity="0.102"/>
    </g>
    <path id="Path_39" data-name="Path 39" d="M239.62,440.69s-27.93,1.6-35.68,9.09-24.3,58.41-34.72,139.66c41.6,43.88,115.08,23.15,115.08,23.15s3.74-148.03-.21-155.48C276.55,442.88,239.62,440.69,239.62,440.69Z" fill="#ffd555"/>
    <g id="Mask-5" data-name="Mask" clip-path="url(#clip-path-5)">
      <path id="Path_41" data-name="Path 41" d="M203.09,591.05c43.18,3.47,79.41-18.43,94.99-30.52,3.07-2.37,7.38-2.68,10.33-5.19s5.01-6.44,4.23-10.23c-1.24-5.97-8.26-8.5-14.25-9.64-28.55-5.46-57.98-3.37-86.22,2.86-12.57,2.77-69.86,11.87-50.39,34.82C170.17,583.04,190.54,590.04,203.09,591.05Z" fill="#d15579" opacity="0.2"/>
    </g>
    <path id="Path_43" data-name="Path 43" d="M58.08,597.78l-5.23-18.23a14.774,14.774,0,0,1,10.13-18.27l261.97-75.1,13.37,46.62L76.34,607.9A14.753,14.753,0,0,1,58.08,597.78Z" fill="#dd7e62"/>
    <g id="Mask-6" data-name="Mask" clip-path="url(#clip-path-6)">
      <path id="Path_45" data-name="Path 45" d="M308.75,566.35l-28.13-98.14,8.68-2.49,28.13,98.14ZM96.72,627.13,68.59,529l8.68-2.49,28.13,98.14Z" fill="#fff" opacity="0.431"/>
      <path id="Path_46" data-name="Path 46" d="M27.97,649.65-.17,551.51l70.11-20.1,28.14,98.14Z" fill="#215b74"/>
      <path id="Path_47" data-name="Path 47" d="M38.98,603.93l13.5,47.09,326.98-93.74-13.5-47.09Z" fill="#d15579" opacity="0.502"/>
      <path id="Path_48" data-name="Path 48" d="M19.38,535.53l13.5,47.09,326.97-93.74-13.5-47.09Z" fill="#d15579" opacity="0.2"/>
    </g>
    <path id="Path_50" data-name="Path 50" d="M324.95,486.18l45.07,12.31-31.7,34.31Z" fill="#ffeaaa"/>
    <g id="Mask-7" data-name="Mask" clip-path="url(#clip-path-7)">
      <path id="Path_52" data-name="Path 52" d="M390.73,523.62a29.211,29.211,0,1,1,20.03-36.13A29.207,29.207,0,0,1,390.73,523.62Z" fill="#23809b"/>
    </g>
    <path id="Path_54" data-name="Path 54" d="M198.39,558.5s13.8-.71,19.99,1.9,9.18,4.17,9.18,4.17l12.34-3.54s-2.98,16.25-17.73,17.44a75.891,75.891,0,0,1-27.35-3.08Z" fill="#ffd1bb"/>
    <path id="Path_55" data-name="Path 55" d="M223.66,442.88s-87.15,5.37-94.51,82.32c-5.07,52.92,68.73,55.59,68.73,55.59l3.45-23.45s-30.98-12.84-30.98-31.78c0-18.96,33.59-32.97,33.59-32.97Z" fill="#ffd555"/>
    <path id="Path_56" data-name="Path 56" d="M240.64,439.42c-15.43,0-30.31,5.42-30.31,5.42l36.01,30.57,28.99-31.75S265.43,439.42,240.64,439.42Z" fill="#ffaa4d"/>
    <path id="Path_57" data-name="Path 57" d="M220.84,417.83s-13.03.99-17.57-3.14c-9.16-8.32-15.67-56.06-16.02-66.09s11.6-24.22,25.46-24.3c1.98-14.76,10.22-10.2,10.22-10.2s-3.88-6.21.99-10.65a101.383,101.383,0,0,1,4.35,9.35s7.69-6.32,25.13-3.1,28.2-5.13,32.32,3.29,10.89,34.24-.39,39.16S215.65,387.88,220.84,417.83Z" fill="#27305c"/>
    <path id="Path_58" data-name="Path 58" d="M218.87,406.21l5.49,42.04,21.62,18.41L264,448.25v-27.1" fill="#ffd1bb"/>
    <g id="Mask-8" data-name="Mask" clip-path="url(#clip-path-8)">
      <path id="Path_60" data-name="Path 60" d="M238.04,385.58c-5.2.1-9.86,3.8-12.27,8.42s-2.9,10.01-2.69,15.21a33.818,33.818,0,0,0,2.45,12.32,29.256,29.256,0,0,0,10.02,11.77c5.66,4.04,12.63,6.57,19.55,5.89s13.65-4.94,16.24-11.4c2.88-7.2.28-15.53-3.97-22.03-4.89-7.48-12.28-13.69-21.03-15.46-3.75-.76-8.05-.53-10.81,2.11" fill="#d15579" opacity="0.2"/>
    </g>
    <path id="Path_62" data-name="Path 62" d="M226.89,332.81c-14.48,6.2-28.27,59.72-10.23,82.79s61.28,18.69,76.31,1.11C305.21,402.39,287.25,306.99,226.89,332.81Z" fill="#ffd1bb"/>
    <path id="Path_63" data-name="Path 63" d="M269.78,365.01c-2.54,1.22,2,26.28,2,26.28,3.44.44,14.12-5.27,14.12-7.51C285.9,383.78,274.61,362.7,269.78,365.01Z" fill="#ffa690"/>
    <path id="Path_64" data-name="Path 64" d="M198.78,387.6c.24-4.2,3.83-7.49,7.67-9.2s9.84,8.1,14.04,7.88c6.83-.36,12.43-3.71,13.18-6.49.54-1.97.08-25.13,2.98-28.44,4.94-5.65,13.46-5.96,20.96-5.9s16.06-.43,20.79-6.24a9.444,9.444,0,0,0,2.13-4.65,10.783,10.783,0,0,0-2.41-7.59c-5.5-7.52-15.74-10.05-25.04-9.53-15.13.84-29.59,8.49-39.41,20.03s-15.01,26.73-15.13,41.87" fill="#27305c"/>
    <path id="Path_65" data-name="Path 65" d="M222.96,390.28s1.8-27.98-12.56-23.94-10.97,32.21,5.38,31.66" fill="#ffd1bb"/>
    <path id="Path_66" data-name="Path 66" d="M246.11,364.24c-.64,1.42,1.21,5.18,3.22,4.88s11.89-1.59,12.88-3.91-.72-5.17-2.09-5.64S246.91,362.48,246.11,364.24Zm30.88-7.55c-.72,1.34.53,5.29,2.35,5.21s10.69-.25,11.8-2.45-.1-5.21-1.26-5.84S277.88,355.03,276.99,356.69Z" fill="#27305c"/>
    <path id="Path_67" data-name="Path 67" d="M258.92,380.77a4.028,4.028,0,0,0,5-2.5,7.626,7.626,0,0,0-.82-4.32,8.606,8.606,0,0,0-1.19-2.01c-1.38-1.62-3.37-1.55-4.39-.03C256.22,373.85,256.37,379.62,258.92,380.77Zm24.36-5.89a3.311,3.311,0,0,0,2.34.02,3.271,3.271,0,0,0,2.65-2.52,7.558,7.558,0,0,0-.82-4.32,8.47,8.47,0,0,0-1.19-2.01c-1.38-1.61-3.37-1.55-4.38-.03C280.58,367.96,280.72,373.74,283.28,374.88Z" fill="#0a303e"/>
    <path id="Path_68" data-name="Path 68" d="M218.86,378.5a8.507,8.507,0,0,0-4.49-6.89,5.819,5.819,0,0,0-5.77.11c-1.66,1.14-2.32,3.71-1.05,5.28.64.8,1.68,1.31,1.98,2.29a4.13,4.13,0,0,1-.64,2.81c-.84,1.87-1.1,4.3.32,5.79a3.516,3.516,0,0,0,3.41.91C216.29,387.8,219.1,381.97,218.86,378.5Z" fill="#ffa690"/>
    <path id="Path_69" data-name="Path 69" d="M211.2,560.69s11.54-5.29,14.47-5.67,4.44,2.25,3.69,3.77-8.99,6.44-8.99,6.44" fill="#ffd1bb"/>
    <path id="Path_70" data-name="Path 70" d="M919.81,300.74a12.48,12.48,0,1,1-12.48-12.48A12.477,12.477,0,0,1,919.81,300.74Z" fill="#e15c56"/>
    <path id="Path_71" data-name="Path 71" d="M896.24,170.74a11.9,11.9,0,1,1-11.9-11.9A11.9,11.9,0,0,1,896.24,170.74Z" fill="#215b74"/>
    <path id="Path_72" data-name="Path 72" d="M787.37,111.12a9.249,9.249,0,1,1-13.08,0A9.234,9.234,0,0,1,787.37,111.12ZM935.6,567.34a9.249,9.249,0,1,1-13.08,0A9.252,9.252,0,0,1,935.6,567.34ZM698.61,94.76A8.76,8.76,0,1,1,689.85,86,8.77,8.77,0,0,1,698.61,94.76ZM85.6,697.53a8.76,8.76,0,1,1-8.76-8.76A8.764,8.764,0,0,1,85.6,697.53Z" fill="#ffce68"/>
    <path id="Path_73" data-name="Path 73" d="M761.8,174.98a4.24,4.24,0,1,1-4.24-4.24A4.244,4.244,0,0,1,761.8,174.98Zm119.4-84.6A4.38,4.38,0,1,1,876.82,86,4.379,4.379,0,0,1,881.2,90.38Zm80.39,270.31a4.38,4.38,0,1,1-4.38-4.38A4.379,4.379,0,0,1,961.59,360.69Z" fill="#23809b"/>
    <path id="Path_74" data-name="Path 74" d="M541.49,126.52a8.86,8.86,0,1,1-8.86-8.86A8.856,8.856,0,0,1,541.49,126.52Z" fill="#dc894e"/>
    <path id="Path_75" data-name="Path 75" d="M317.57,230.32a7.805,7.805,0,1,1-7.8-7.8A7.8,7.8,0,0,1,317.57,230.32Z" fill="#23809b"/>
    <path id="Path_76" data-name="Path 76" d="M317.57,153.92a10.485,10.485,0,1,1-10.49-10.49A10.486,10.486,0,0,1,317.57,153.92ZM162.8,265.03a10.075,10.075,0,1,1-10.08-10.07A10.076,10.076,0,0,1,162.8,265.03Z" fill="#ffce68"/>
    <path id="Path_77" data-name="Path 77" d="M264,234.54a6.01,6.01,0,1,1-6.01-6.01A6.009,6.009,0,0,1,264,234.54ZM134.91,653.13a6.01,6.01,0,1,1-6.01-6.01A6.009,6.009,0,0,1,134.91,653.13Z" fill="#215b74"/>
    <path id="Path_78" data-name="Path 78" d="M169.22,167.09a8.25,8.25,0,1,1-8.25-8.25A8.25,8.25,0,0,1,169.22,167.09Z" fill="#dc894e"/>
    <path id="Path_79" data-name="Path 79" d="M83.88,393.08a7.035,7.035,0,1,1-7.04-7.04A7.035,7.035,0,0,1,83.88,393.08Z" fill="#e15c56"/>
  </g>
</svg>