<svg width="24" height="24" viewBox="0 0 24 24" fill="none" xmlns="http://www.w3.org/2000/svg">
<g clip-path="url(#clip0_1_4198)">
<path d="M4.87427 0.749512C4.25752 0.749512 3.75 1.25703 3.75 1.87379V13.8738C3.75 14.3743 4.50073 14.3743 4.50073 13.8738V4.501H19.4985V13.8738C19.4872 14.3851 20.26 14.3851 20.2485 13.8738V1.87379C20.2485 1.25703 19.7418 0.749512 19.125 0.749512H4.87427ZM4.87427 1.50026H19.125C19.3392 1.50026 19.4985 1.65955 19.4985 1.87379V3.75025H4.50073V1.87379C4.50073 1.65955 4.66004 1.50026 4.87427 1.50026ZM5.625 2.24953C5.41789 2.24953 5.25 2.41744 5.25 2.62454C5.25 2.83165 5.41789 2.9995 5.625 2.9995C5.8321 2.9995 6 2.83165 6 2.62454C6 2.41744 5.8321 2.24953 5.625 2.24953ZM7.125 2.24953C6.9179 2.24953 6.75 2.41744 6.75 2.62454C6.75 2.83165 6.9179 2.9995 7.125 2.9995C7.33211 2.9995 7.5 2.83165 7.5 2.62454C7.5 2.41744 7.33211 2.24953 7.125 2.24953ZM8.625 2.24953C8.4179 2.24953 8.25 2.41744 8.25 2.62454C8.25 2.83165 8.4179 2.9995 8.625 2.9995C8.83211 2.9995 9 2.83165 9 2.62454C9 2.41744 8.83211 2.24953 8.625 2.24953ZM13.856 2.25027C13.3496 2.28471 13.3842 3.01268 13.8735 3.00028H18.375C18.864 2.98894 18.864 2.26111 18.375 2.25027H13.856ZM1.87647 3.00028C1.2597 3.00028 0.75 3.50707 0.75 4.12383V17.6245C0.75 18.2413 1.2597 18.7488 1.87647 18.7488H22.1257C22.7425 18.7488 23.25 18.2413 23.25 17.6245V4.12378C23.25 3.50702 22.7425 3.00024 22.1257 3.00024H21.3757C20.8645 2.9889 20.8645 3.76159 21.3757 3.75025H22.1257C22.34 3.75025 22.4993 3.90954 22.4993 4.12378V15.0002H1.5V4.12378C1.5 3.90954 1.66224 3.75025 1.87647 3.75025H2.62353C3.13475 3.76159 3.13475 2.9889 2.62353 3.00024L1.87647 3.00028ZM13.1294 5.99367C12.9645 5.99255 12.8183 6.0993 12.769 6.25665L10.5183 13.0059C10.3596 13.4805 11.0715 13.7185 11.2302 13.2439L13.481 6.49246C13.5658 6.24963 13.3866 5.99537 13.1294 5.99367ZM14.7598 8.16165L16.6641 9.75026L14.7598 11.3367C14.3529 11.6552 14.8553 12.2563 15.241 11.9124L17.4888 10.0381C17.6683 9.8882 17.6683 9.61237 17.4888 9.46245L15.241 7.58526C15.1738 7.52771 15.0884 7.4958 14.981 7.49594C14.6265 7.52698 14.498 7.94986 14.7598 8.16174V8.16165ZM8.99048 7.49663C8.90602 7.49947 8.82498 7.53065 8.7605 7.58521L6.5105 9.46241C6.33101 9.61233 6.33101 9.88815 6.5105 10.0381L8.7605 11.9124C9.14747 12.2728 9.66426 11.6516 9.2395 11.3367L7.33521 9.75021L9.2395 8.16161C9.51658 7.93474 9.34843 7.48567 8.99048 7.49659V7.49663ZM1.5 15.751H22.4993V17.6245C22.4993 17.8388 22.34 17.998 22.1257 17.998H1.87647C1.66224 17.998 1.5 17.8388 1.5 17.6245V15.751ZM12.7705 16.5003L11.2317 16.501C10.7537 16.5581 10.7858 17.2353 11.2493 17.2481H12.75C13.265 17.2936 13.3079 16.5106 12.7705 16.5003H12.7705ZM9.89648 19.4695C9.74596 19.4666 9.60811 19.5534 9.54639 19.6907C9.3658 20.078 9.04228 20.5303 8.48364 20.9988H7.875C7.25824 20.9988 6.75147 21.5092 6.75147 22.126V22.8731C6.75072 23.0802 6.9179 23.2487 7.125 23.2495H16.8743C17.0825 23.2503 17.2515 23.0813 17.2507 22.8731V22.126C17.2507 21.5092 16.741 20.9988 16.1243 20.9988H15.5164C14.9578 20.5303 14.6342 20.078 14.4536 19.6907C14.3901 19.5498 14.2468 19.4623 14.0925 19.4702C13.8246 19.4844 13.6573 19.7663 13.7739 20.0079C13.9201 20.3214 14.1433 20.6577 14.4441 20.9988H9.55591C9.85665 20.6577 10.0799 20.3214 10.2261 20.0079C10.3451 19.7619 10.1697 19.4753 9.89648 19.4695ZM7.875 21.7495H16.1243C16.3385 21.7495 16.5007 21.9118 16.5007 22.126V22.4995H7.50147V22.126C7.50147 21.9118 7.66076 21.7495 7.875 21.7495Z" fill="#ED0F66"/>
</g>
<defs>
<clipPath id="clip0_1_4198">
<rect width="24" height="24" fill="white"/>
</clipPath>
</defs>
</svg>