<svg width="43" height="43" viewBox="0 0 43 43" fill="none" xmlns="http://www.w3.org/2000/svg">
<g clip-path="url(#clip0_1_4128)">
<path d="M42.1602 37.2891H40.4805V4.70312C40.4805 4.23928 40.1044 3.86328 39.6406 3.86328H33.4538V0.839844C33.4538 0.375998 33.0777 0 32.6139 0H10.3861C9.92233 0 9.54625 0.375998 9.54625 0.839844V3.86328H3.35938C2.89561 3.86328 2.51953 4.23928 2.51953 4.70312V37.2891H0.839844C0.375998 37.2891 0 37.6651 0 38.1289V42.1602C0 42.624 0.375998 43 0.839844 43H17.721C18.1848 43 18.5609 42.624 18.5609 42.1602C18.5609 41.6963 18.1848 41.3203 17.721 41.3203H1.67969V38.9688H41.3203V41.3203H25.2791C24.8154 41.3203 24.4393 41.6963 24.4393 42.1602C24.4393 42.624 24.8154 43 25.2791 43H42.1602C42.6239 43 43 42.624 43 42.1602V38.1289C43 37.6651 42.6239 37.2891 42.1602 37.2891ZM11.2259 1.67969H31.7741V3.86328H11.2259V1.67969ZM20.6602 37.2891H16.293V32.25C16.293 29.6648 18.1871 27.5145 20.6602 27.1117V37.2891ZM22.3398 37.2891V27.1117C24.8129 27.5145 26.707 29.6648 26.707 32.25V37.2891H22.3398ZM28.3867 37.2891V32.25C28.3867 28.4526 25.2974 25.3633 21.5 25.3633C17.7026 25.3633 14.6133 28.4526 14.6133 32.25V37.2891H4.19922V5.54297H38.8008V37.2891H28.3867Z" fill="#ED0F66"/>
<path d="M11.4219 9.23828H7.39062C6.92686 9.23828 6.55078 9.61428 6.55078 10.0781V14.1094C6.55078 14.5732 6.92686 14.9492 7.39062 14.9492H11.4219C11.8857 14.9492 12.2617 14.5732 12.2617 14.1094V10.0781C12.2617 9.61428 11.8857 9.23828 11.4219 9.23828ZM10.582 13.2695H8.23047V10.918H10.582V13.2695Z" fill="#25BCB7"/>
<path d="M19.4844 9.23828H15.4531C14.9893 9.23828 14.6133 9.61428 14.6133 10.0781V14.1094C14.6133 14.5732 14.9893 14.9492 15.4531 14.9492H19.4844C19.9482 14.9492 20.3242 14.5732 20.3242 14.1094V10.0781C20.3242 9.61428 19.9482 9.23828 19.4844 9.23828ZM18.6445 13.2695H16.293V10.918H18.6445V13.2695Z" fill="#25BCB7"/>
<path d="M27.5469 9.23828H23.5156C23.0519 9.23828 22.6758 9.61428 22.6758 10.0781V14.1094C22.6758 14.5732 23.0519 14.9492 23.5156 14.9492H27.5469C28.0106 14.9492 28.3867 14.5732 28.3867 14.1094V10.0781C28.3867 9.61428 28.0106 9.23828 27.5469 9.23828ZM26.707 13.2695H24.3555V10.918H26.707V13.2695Z" fill="#25BCB7"/>
<path d="M35.6094 9.23828H31.5781C31.1144 9.23828 30.7383 9.61428 30.7383 10.0781V14.1094C30.7383 14.5732 31.1144 14.9492 31.5781 14.9492H35.6094C36.0731 14.9492 36.4492 14.5732 36.4492 14.1094V10.0781C36.4492 9.61428 36.0731 9.23828 35.6094 9.23828ZM34.7695 13.2695H32.418V10.918H34.7695V13.2695Z" fill="#25BCB7"/>
<path d="M11.4219 17.3008H7.39062C6.92686 17.3008 6.55078 17.6768 6.55078 18.1406V22.1719C6.55078 22.6357 6.92686 23.0117 7.39062 23.0117H11.4219C11.8857 23.0117 12.2617 22.6357 12.2617 22.1719V18.1406C12.2617 17.6768 11.8857 17.3008 11.4219 17.3008ZM10.582 21.332H8.23047V18.9805H10.582V21.332Z" fill="#25BCB7"/>
<path d="M19.4844 17.3008H15.4531C14.9893 17.3008 14.6133 17.6768 14.6133 18.1406V22.1719C14.6133 22.6357 14.9893 23.0117 15.4531 23.0117H19.4844C19.9482 23.0117 20.3242 22.6357 20.3242 22.1719V18.1406C20.3242 17.6768 19.9482 17.3008 19.4844 17.3008ZM18.6445 21.332H16.293V18.9805H18.6445V21.332Z" fill="#25BCB7"/>
<path d="M27.5469 17.3008H23.5156C23.0519 17.3008 22.6758 17.6768 22.6758 18.1406V22.1719C22.6758 22.6357 23.0519 23.0117 23.5156 23.0117H27.5469C28.0106 23.0117 28.3867 22.6357 28.3867 22.1719V18.1406C28.3867 17.6768 28.0106 17.3008 27.5469 17.3008ZM26.707 21.332H24.3555V18.9805H26.707V21.332Z" fill="#25BCB7"/>
<path d="M35.6094 17.3008H31.5781C31.1144 17.3008 30.7383 17.6768 30.7383 18.1406V22.1719C30.7383 22.6357 31.1144 23.0117 31.5781 23.0117H35.6094C36.0731 23.0117 36.4492 22.6357 36.4492 22.1719V18.1406C36.4492 17.6768 36.0731 17.3008 35.6094 17.3008ZM34.7695 21.332H32.418V18.9805H34.7695V21.332Z" fill="#25BCB7"/>
<path d="M11.4219 25.3633H7.39062C6.92686 25.3633 6.55078 25.7393 6.55078 26.2031V30.2344C6.55078 30.6982 6.92686 31.0742 7.39062 31.0742H11.4219C11.8857 31.0742 12.2617 30.6982 12.2617 30.2344V26.2031C12.2617 25.7393 11.8857 25.3633 11.4219 25.3633ZM10.582 29.3945H8.23047V27.043H10.582V29.3945Z" fill="#25BCB7"/>
<path d="M35.6094 25.3633H31.5781C31.1144 25.3633 30.7383 25.7393 30.7383 26.2031V30.2344C30.7383 30.6982 31.1144 31.0742 31.5781 31.0742H35.6094C36.0731 31.0742 36.4492 30.6982 36.4492 30.2344V26.2031C36.4492 25.7393 36.0731 25.3633 35.6094 25.3633ZM34.7695 29.3945H32.418V27.043H34.7695V29.3945Z" fill="#25BCB7"/>
<path d="M21.5 41.3203C21.2791 41.3203 21.0624 41.4102 20.9062 41.5664C20.75 41.7226 20.6602 41.9393 20.6602 42.1602C20.6602 42.381 20.7499 42.5977 20.9062 42.7539C21.0624 42.9101 21.2791 43 21.5 43C21.7209 43 21.9376 42.9101 22.0937 42.7539C22.2499 42.5977 22.3398 42.381 22.3398 42.1602C22.3398 41.9393 22.25 41.7226 22.0937 41.5664C21.9376 41.4102 21.7209 41.3203 21.5 41.3203Z" fill="#999999"/>
</g>
<defs>
<clipPath id="clip0_1_4128">
<rect width="43" height="43" fill="white"/>
</clipPath>
</defs>
</svg>
