<svg width="18" height="23" viewBox="0 0 18 23" fill="none" xmlns="http://www.w3.org/2000/svg">
<path d="M6.62115 2.06567L8.44768 2.06567C8.64615 2.06567 8.80706 1.90476 8.80706 1.7063C8.80706 1.50783 8.64615 1.34692 8.44768 1.34692L6.62115 1.34692C6.42269 1.34692 6.26178 1.50783 6.26178 1.7063C6.26178 1.90476 6.42269 2.06567 6.62115 2.06567Z" fill="#ED0F66"/>
<path d="M4.99207 21.4128H8.25013C8.4486 21.4128 8.60951 21.2519 8.60951 21.0534C8.60951 20.8549 8.4486 20.694 8.25013 20.694H4.99207C4.7936 20.694 4.63269 20.8549 4.63269 21.0534C4.63269 21.2519 4.7936 21.4128 4.99207 21.4128Z" fill="#36C1BD"/>
<path d="M0.359436 17.8373C0.557901 17.8373 0.718811 17.6764 0.718811 17.4779L0.718811 3.41406L12.5229 3.41406L12.5229 5.2627C12.5229 5.46117 12.6838 5.62208 12.8823 5.62208C13.0807 5.62208 13.2417 5.46117 13.2417 5.2627C13.2418 4.83033 13.2411 6.58905 13.2433 1.43031C13.2433 0.643522 12.5999 0 11.8103 0L11.8094 0L1.43142 0L1.43063 0C0.67942 0 6.10352e-05 0.617891 6.10352e-05 1.43136L6.10352e-05 17.4779C6.10352e-05 17.6764 0.160975 17.8373 0.359436 17.8373ZM11.8094 0.71875C12.1891 0.71875 12.5229 1.0296 12.5229 1.43136V2.69531L0.719051 2.69531L0.719051 1.43031C0.719051 1.03836 1.04007 0.71875 1.43142 0.71875L11.8094 0.71875Z" fill="#ED0F66"/>
<path d="M8.83854 9.05489C8.97834 9.19363 9.20611 9.19445 9.34672 9.05243L10.8486 7.53649C10.9874 7.39646 10.9874 7.1708 10.8486 7.03077L9.34672 5.51483C9.20704 5.37375 8.97963 5.37305 8.83854 5.51238C8.69746 5.65205 8.69641 5.87965 8.83609 6.02055L10.0874 7.28363L8.83609 8.54671C8.69641 8.68762 8.69746 8.91521 8.83854 9.05489Z" fill="#36C1BD"/>
<path d="M4.4031 5.51241C4.26219 5.37238 4.03442 5.37343 3.89492 5.51486L2.39319 7.0308C2.25439 7.17083 2.25439 7.39649 2.39319 7.53652L3.89492 9.05246C4.0345 9.19344 4.26191 9.19469 4.4031 9.05492C4.54418 8.91524 4.54523 8.68765 4.40555 8.54674L3.15441 7.28366L4.40555 6.02059C4.54523 5.87968 4.54418 5.65208 4.4031 5.51241Z" fill="#36C1BD"/>
<path d="M7.20019 4.49692L5.09079 9.80508C5.01744 9.9895 5.10764 10.1985 5.29206 10.2717C5.47548 10.3449 5.68504 10.2557 5.75866 10.0704L7.86805 4.76224C7.9414 4.57782 7.85121 4.36883 7.66678 4.29565C7.48165 4.22143 7.27336 4.3125 7.20019 4.49692Z" fill="#36C1BD"/>
<path d="M12.8839 11.155C11.831 11.155 10.9756 12.0103 10.9756 13.0632C10.9756 14.1261 11.8423 14.9715 12.8839 14.9715C13.921 14.9715 14.7886 14.1279 14.7886 13.0632C14.7886 12.0103 13.9333 11.155 12.8839 11.155ZM13.2433 14.1953V12.8261C13.2433 12.6284 13.0816 12.4667 12.8839 12.4667C12.6827 12.4667 12.5246 12.6284 12.5246 12.8261V14.1989C12.043 14.048 11.6944 13.5951 11.6944 13.0632C11.6944 12.4092 12.2263 11.8737 12.8839 11.8737C13.538 11.8737 14.0699 12.4092 14.0699 13.0632C14.0699 13.5951 13.7213 14.0444 13.2433 14.1953Z" fill="#36C1BD"/>
<path d="M17.5378 11.9277L16.6538 11.827C16.5855 11.6186 16.4993 11.4138 16.395 11.2161L16.9125 10.483C17.0168 10.3428 16.9988 10.1452 16.8766 10.023L15.8452 8.99517C15.7158 8.86577 15.511 8.85141 15.3672 8.96641L14.6736 9.52344C14.476 9.42281 14.2711 9.34016 14.0591 9.27547L13.9117 8.38783C13.883 8.21531 13.7321 8.08954 13.556 8.08954H12.1005C11.9172 8.08954 11.7627 8.2261 11.7411 8.40939L11.6441 9.29704C11.4321 9.36532 11.2308 9.45156 11.0368 9.5522L10.3 9.0311C10.1563 8.93046 9.96222 8.94485 9.84002 9.07063L8.81222 10.0984C8.68285 10.2278 8.67206 10.4327 8.78706 10.5764L9.34051 11.2736C9.23987 11.4712 9.15722 11.6761 9.09254 11.8881L8.20847 12.0355C8.03598 12.0678 7.90658 12.2152 7.90658 12.3912L7.90658 13.8467C7.90658 14.03 8.04674 14.1809 8.22643 14.2025L9.1105 14.3031C9.17878 14.5152 9.26863 14.72 9.36924 14.9141L8.85174 15.6436C8.75113 15.7873 8.76549 15.9814 8.89129 16.1072L9.9191 17.135C10.0485 17.2644 10.2533 17.2752 10.3971 17.1602L11.0943 16.6067C11.2919 16.7037 11.4932 16.7864 11.7052 16.8511L11.8525 17.7387C11.8813 17.9148 12.0322 18.0406 12.2083 18.0406H12.5246V18.8348L0.359711 18.8348C0.162058 18.8348 0.000335693 18.9966 0.000335693 19.1942C0.000335693 19.2499 0.000335693 21.6601 0.000335693 21.5697C0.000335693 22.3567 0.643631 23 1.43066 23L11.8094 23C12.6 23 13.2433 22.3567 13.2433 21.5697C13.2433 21.394 13.2433 17.8668 13.2433 18.0406H13.6638C13.8471 18.0406 14.0016 17.9041 14.0231 17.7208L14.1238 16.8331C14.3322 16.7649 14.5371 16.6786 14.7311 16.578L15.4642 17.0991C15.608 17.1997 15.8021 17.1817 15.9278 17.0595L16.9521 16.0281C17.0814 15.8987 17.0922 15.6939 16.9772 15.5538L16.4238 14.8566C16.5244 14.6553 16.6071 14.4505 16.6717 14.242L17.5558 14.0911C17.7283 14.0624 17.8577 13.9114 17.8577 13.7389V12.2834C17.8577 12.1002 17.7211 11.9456 17.5378 11.9277ZM12.5246 21.5697C12.5246 21.9614 12.2047 22.2813 11.8094 22.2813L1.43067 22.2813C1.03894 22.2813 0.719089 21.9614 0.719089 21.5697C0.719089 21.4925 0.719089 19.5167 0.719089 19.5536L12.5246 19.5536V21.5697H12.5246ZM17.1389 13.4334L16.3268 13.57C16.183 13.5952 16.0716 13.6994 16.0357 13.8431C15.9638 14.145 15.8452 14.4361 15.6871 14.7128C15.6116 14.8386 15.6224 15.0003 15.7158 15.1153L16.2154 15.7478L15.6331 16.3372L14.9575 15.8556C14.8425 15.773 14.6844 15.7694 14.5622 15.8449C14.2999 16.0066 14.0124 16.1288 13.7069 16.2042C13.5596 16.2402 13.4518 16.3659 13.4338 16.5133L13.3439 17.3219C13.0412 17.3219 12.8131 17.3219 12.5102 17.3219L12.3736 16.5061C12.3521 16.3659 12.2442 16.2509 12.1041 16.2186C11.8022 16.1431 11.5111 16.0245 11.2416 15.8664C11.1122 15.7909 10.9505 15.8017 10.8355 15.8952L10.1994 16.3983L9.61362 15.8125L10.088 15.1477C10.1644 15.0394 10.178 14.8797 10.1024 14.7452C9.94066 14.4828 9.81487 14.1917 9.73582 13.8827C9.69989 13.7389 9.57769 13.6311 9.43036 13.6167L8.62533 13.5233V12.6967L9.43752 12.5602C9.58128 12.535 9.69629 12.4272 9.72862 12.287C9.8005 11.9816 9.9191 11.6905 10.0808 11.4245C10.1563 11.2952 10.1491 11.1334 10.0557 11.0149L9.54893 10.3788L10.1347 9.79297L10.8067 10.2709C10.9217 10.3536 11.0799 10.3608 11.2021 10.2853C11.4644 10.1236 11.7555 10.0014 12.0646 9.92234C12.2083 9.88641 12.3125 9.76422 12.3305 9.61688L12.4203 8.80829H13.2541L13.3906 9.62048C13.4158 9.76422 13.52 9.87922 13.6602 9.91157C13.9657 9.98345 14.2568 10.102 14.5263 10.2638C14.6557 10.3392 14.8174 10.3284 14.9324 10.235L15.5649 9.72829L16.1506 10.3177L15.6763 10.9861C15.6009 11.0929 15.5854 11.249 15.6619 11.385C15.8272 11.6545 15.9494 11.9456 16.0249 12.2439C16.0608 12.3876 16.183 12.4955 16.3339 12.5134L17.1389 12.6033V13.4334H17.1389Z" fill="#ED0F66"/>
</svg>