<svg width="50" height="43" viewBox="0 0 50 43" fill="none" xmlns="http://www.w3.org/2000/svg">
<path d="M46.7356 37.9336C47.5727 37.7505 48.3219 37.2864 48.8586 36.6185C49.3953 35.9505 49.6872 35.119 49.6857 34.2621C49.6839 33.3586 49.3534 32.4867 48.7558 31.8091C48.8728 31.4852 48.9324 31.1434 48.9321 30.799C48.9321 30.0017 48.6154 29.2371 48.0517 28.6734C47.4879 28.1096 46.7233 27.7929 45.926 27.7929C45.1287 27.7929 44.3641 28.1096 43.8003 28.6734C43.2366 29.2371 42.9198 30.0017 42.9198 30.799C42.9195 31.1434 42.9792 31.4852 43.0962 31.8091C42.4973 32.4859 42.1666 33.3584 42.1663 34.2621C42.1648 35.119 42.4567 35.9505 42.9934 36.6185C43.5301 37.2864 44.2793 37.7505 45.1163 37.9336V41.4128H41.6693V8.19277L21.6443 0V7.53542L3.1264 0V41.3967H0V43H48.9001V41.3967H46.7356V37.9336ZM43.7856 34.2621C43.7948 33.9527 43.8713 33.649 44.0098 33.3722C44.1482 33.0953 44.3453 32.8519 44.5872 32.6588L45.1484 32.2099L44.7636 31.6007C44.63 31.3897 44.5555 31.1468 44.5478 30.8972C44.5402 30.6476 44.5996 30.4006 44.72 30.1818C44.8404 29.9631 45.0173 29.7806 45.2323 29.6536C45.4472 29.5265 45.6923 29.4595 45.942 29.4595C46.1917 29.4595 46.4368 29.5265 46.6518 29.6536C46.8667 29.7806 47.0436 29.9631 47.164 30.1818C47.2844 30.4006 47.3439 30.6476 47.3362 30.8972C47.3286 31.1468 47.254 31.3897 47.1204 31.6007L46.7356 32.2099L47.2808 32.6588C47.5658 32.8885 47.7874 33.1871 47.9246 33.5264C48.0618 33.8657 48.1101 34.2345 48.0648 34.5976C48.0195 34.9608 47.8821 35.3064 47.6658 35.6017C47.4495 35.8969 47.1613 36.1319 46.8286 36.2845C46.496 36.4372 46.1298 36.5022 45.7649 36.4736C45.4001 36.445 45.0485 36.3237 44.7437 36.1211C44.4389 35.9185 44.1909 35.6414 44.0232 35.316C43.8555 34.9907 43.7737 34.6279 43.7856 34.2621ZM23.2476 2.38889L40.1141 9.26696V38.2864H23.2476V2.38889ZM21.6443 11.6879H19.079V13.2912H21.6443V17.2673H19.079V18.8706H21.6443V22.8468H19.079V24.45H21.6443V29.0996H19.079V30.7028H21.6443V35.1119H14.0287V33.9094H16.4176V32.3061H14.0287V28.0574H16.4176V26.4541H14.0287V22.2054H16.4176V20.6022H14.0287V16.3695H16.4176V14.7662H14.0287V10.5496H16.4176V8.94631H14.0287V6.18866L21.6443 9.283V11.6879ZM10.742 36.6991V41.3967H8.96234V36.7151L10.742 36.6991ZM12.3453 36.6991H14.0287V41.3967H12.2972L12.3453 36.6991ZM15.6801 36.6991H17.4116V41.3967H15.632L15.6801 36.6991ZM12.4735 5.51529V35.1119H4.72968V2.38889L12.4735 5.51529ZM4.72968 36.7151H7.35906V41.4128H4.72968V36.7151ZM18.9668 41.4128V36.7151H21.6443V41.4128H18.9668ZM23.1995 41.4128V39.9057H40.066V41.4128H23.1995Z" fill="#ED0F66"/>
<path d="M6.36499 13.5957H9.21883V15.199H6.36499V13.5957Z" fill="#25BCB7"/>
<path d="M6.36499 17.2675H9.21883V18.8707H6.36499V17.2675Z" fill="#25BCB7"/>
<path d="M6.36499 20.939H9.21883V22.5422H6.36499V20.939Z" fill="#25BCB7"/>
<path d="M6.36499 24.6104H9.21883V26.2136H6.36499V24.6104Z" fill="#25BCB7"/>
<path d="M6.36499 28.282H9.21883V29.8853H6.36499V28.282Z" fill="#25BCB7"/>
<path d="M34.2782 13.5957H37.132V15.199H34.2782V13.5957Z" fill="#25BCB7"/>
<path d="M34.2782 17.2675H37.132V18.8707H34.2782V17.2675Z" fill="#25BCB7"/>
<path d="M34.2782 20.939H37.132V22.5422H34.2782V20.939Z" fill="#25BCB7"/>
<path d="M34.2782 24.6104H37.132V26.2136H34.2782V24.6104Z" fill="#25BCB7"/>
<path d="M34.2782 28.282H37.132V29.8853H34.2782V28.282Z" fill="#25BCB7"/>
<path d="M34.2782 31.9534H37.132V33.5567H34.2782V31.9534Z" fill="#25BCB7"/>
<path d="M26.1334 13.5957H28.9872V15.199H26.1334V13.5957Z" fill="#25BCB7"/>
<path d="M26.1334 17.2675H28.9872V18.8707H26.1334V17.2675Z" fill="#25BCB7"/>
<path d="M26.1334 20.939H28.9872V22.5422H26.1334V20.939Z" fill="#25BCB7"/>
<path d="M26.1334 24.6104H28.9872V26.2136H26.1334V24.6104Z" fill="#25BCB7"/>
<path d="M26.1334 28.282H28.9872V29.8853H26.1334V28.282Z" fill="#25BCB7"/>
<path d="M26.1334 31.9534H28.9872V33.5567H26.1334V31.9534Z" fill="#25BCB7"/>
<path d="M6.36499 31.9534H9.21883V33.5567H6.36499V31.9534Z" fill="#25BCB7"/>
</svg>
