<svg width="24" height="24" viewBox="0 0 24 24" fill="none" xmlns="http://www.w3.org/2000/svg">
<path d="M13.3794 6.3672C13.2146 6.36608 13.0683 6.47283 13.0191 6.63018L10.7683 13.3794C10.6096 13.854 11.3216 14.0921 11.4803 13.6174L13.731 6.866C13.8159 6.62317 13.6366 6.3689 13.3794 6.3672ZM15.0098 8.53518L16.9141 10.1238L15.0098 11.7102C14.6029 12.0288 15.1053 12.6299 15.491 12.2859L17.7388 10.4116C17.9183 10.2617 17.9183 9.98591 17.7388 9.83598L15.491 7.95879C15.4238 7.90125 15.3385 7.86933 15.231 7.86947C14.8765 7.90051 14.748 8.32331 15.0098 8.53518ZM9.24051 7.87017C9.15606 7.873 9.07501 7.90418 9.01053 7.95875L6.76053 9.83594C6.58104 9.98586 6.58104 10.2617 6.76053 10.4116L9.01053 12.2859C9.3975 12.6463 9.91429 12.0252 9.48953 11.7102L7.58524 10.1237L9.48953 8.53514C9.76661 8.30827 9.59846 7.85925 9.24051 7.87017Z" fill="#36C1BD"/>
<path d="M5.03262 1C4.42958 1 3.93333 1.5188 3.93333 2.14927V14.4159C3.93333 14.9275 4.66738 14.9275 4.66738 14.4159V4.83485H19.3319V14.4159C19.3208 14.9386 20.0765 14.9386 20.0652 14.4159V2.14927C20.0652 1.5188 19.5697 1 18.9667 1H5.03262ZM5.03262 1.76743H18.9667C19.1761 1.76743 19.3319 1.93026 19.3319 2.14927V4.06742H4.66738V2.14927C4.66738 1.93026 4.82315 1.76743 5.03262 1.76743ZM5.76667 2.53336C5.56416 2.53336 5.4 2.70499 5.4 2.9167C5.4 3.12841 5.56416 3.29999 5.76667 3.29999C5.96916 3.29999 6.13333 3.12841 6.13333 2.9167C6.13333 2.70499 5.96916 2.53336 5.76667 2.53336ZM7.23333 2.53336C7.03084 2.53336 6.86667 2.70499 6.86667 2.9167C6.86667 3.12841 7.03084 3.29999 7.23333 3.29999C7.43584 3.29999 7.6 3.12841 7.6 2.9167C7.6 2.70499 7.43584 2.53336 7.23333 2.53336ZM8.7 2.53336C8.4975 2.53336 8.33333 2.70499 8.33333 2.9167C8.33333 3.12841 8.4975 3.29999 8.7 3.29999C8.90251 3.29999 9.06667 3.12841 9.06667 2.9167C9.06667 2.70499 8.90251 2.53336 8.7 2.53336ZM13.8147 2.53411C13.3197 2.56931 13.3534 3.31346 13.8319 3.30079H18.2333C18.7115 3.2892 18.7115 2.54519 18.2333 2.53411H13.8147ZM2.10143 3.30079C1.49838 3.30079 1 3.81883 1 4.4493V18.25C1 18.8805 1.49838 19.3993 2.10143 19.3993H21.9007C22.5038 19.3993 23 18.8805 23 18.25V4.44926C23 3.81879 22.5038 3.30074 21.9007 3.30074H21.1674C20.6675 3.28915 20.6675 4.07901 21.1674 4.06742H21.9007C22.1102 4.06742 22.266 4.23025 22.266 4.44926V15.5674H1.73333V4.44926C1.73333 4.23025 1.89196 4.06742 2.10143 4.06742H2.8319C3.33175 4.07901 3.33175 3.28915 2.8319 3.30074L2.10143 3.30079ZM1.73333 16.3348H22.266V18.25C22.266 18.469 22.1102 18.6318 21.9007 18.6318H2.10143C1.89196 18.6318 1.73333 18.469 1.73333 18.25V16.3348ZM12.7534 17.1008L11.2488 17.1015C10.7814 17.1599 10.8128 17.8521 11.266 17.8652H12.7333C13.2369 17.9117 13.2788 17.1113 12.7534 17.1008ZM9.94323 20.136C9.79605 20.1331 9.66126 20.2217 9.60091 20.3621C9.42434 20.758 9.10801 21.2203 8.56179 21.6993H7.96667C7.36361 21.6993 6.8681 22.2211 6.8681 22.8515V23.6152C6.86737 23.8269 7.03084 23.9992 7.23333 24H16.766C16.9696 24.0008 17.1348 23.8281 17.134 23.6152V22.8515C17.134 22.2211 16.6357 21.6993 16.0326 21.6993H15.4382C14.892 21.2204 14.5756 20.758 14.3991 20.3621C14.337 20.2181 14.1969 20.1286 14.046 20.1367C13.7841 20.1512 13.6205 20.4394 13.7345 20.6863C13.8774 21.0068 14.0957 21.3506 14.3898 21.6993H9.61022C9.90428 21.3506 10.1225 21.0068 10.2655 20.6863C10.3819 20.4349 10.2103 20.1419 9.94323 20.136ZM7.96667 22.4667H16.0326C16.2421 22.4667 16.4007 22.6325 16.4007 22.8515V23.2334H12.0011H7.60143V22.8515C7.60143 22.6325 7.75719 22.4667 7.96667 22.4667Z" fill="#ED0F66"/>
</svg>